<svg xmlns="http://www.w3.org/2000/svg" viewBox="0 0 169.25 135.97"><g id="Layer_2" data-name="Layer 2"><g id="Layer_1-2" data-name="Layer 1"><path d="M161.69,84.12Q141.49,42,121.28,0H98.38l-10,20.79Q70.22,58.56,52.07,96.3c-.13.27-.31.7-.47.7H81.94c.13,0,.24-.2.34-.41q13.55-27.23,27.1-54.42c.17-.34.35-.66.57-1.08.13.21.25.31.33.48C119.35,60.06,128.42,79,137.49,97h30.45C165.86,93,163.76,88.44,161.69,84.12Z"/><path d="M2.24,0c-.3,0-.76.1-1.06.1H0V25H24V97H52V38.92L30.89,25H76V0Z"/><path d="M39.11,121.23l-.14.28a5.52,5.52,0,0,1-5.11,3.35,5.86,5.86,0,0,1,.07-11.71,5.32,5.32,0,0,1,4.9,3l.15.28,3.58-2.28-.15-.26A9.92,9.92,0,0,0,24,119,9.61,9.61,0,0,0,33.93,129a9.91,9.91,0,0,0,8.77-5.51l.14-.27Z"/><path d="M52.39,112.76a8,8,0,0,0-8.08,8.14,8.09,8.09,0,1,0,8.08-8.14Zm0,12.38a4.25,4.25,0,1,1,4.06-4.24A4.1,4.1,0,0,1,52.39,125.14Z"/><path d="M70.91,112.76a5.88,5.88,0,0,0-4.19,1.66v-1.35h-4V128.7h4.08v-8.54c0-2.3,1.26-3.78,3.21-3.78,2.55,0,3.08,1.89,3.08,3.47v8.85h4.13v-9.21C77.17,115.22,74.89,112.76,70.91,112.76Z"/><path d="M86.74,119c-2.22-.48-3.2-.73-3.2-1.45s.83-1.31,2.11-1.31a3.28,3.28,0,0,1,2.92,1.56l.14.25,3.5-1.77-.16-.28c-1.3-2.16-3.45-3.25-6.4-3.25-3.54,0-6.21,2.11-6.21,4.9,0,3.38,2.84,4.26,5.5,4.82l.65.14c1.41.3,2.63.55,2.63,1.28,0,.93-.87,1.51-2.26,1.51a3.54,3.54,0,0,1-3.35-2l-.14-.27-3.76,1.81.15.28c1.31,2.56,3.58,3.81,6.94,3.81,4.71,0,6.47-3.2,6.47-5.21C92.27,120.52,89.47,119.52,86.74,119Z"/><path d="M104.37,113.07v8.55c0,2.33-1.16,3.77-3,3.77-2.4,0-2.91-1.88-2.91-3.46v-8.86H94.31v9.22c0,4.21,2.27,6.72,6.08,6.72a5.54,5.54,0,0,0,4-1.52v1.21h4.06V113.07Z"/><rect x="111.12" y="109.09" width="4.1" height="19.61"/><path d="M127.09,116.79v-3.72H124v-4.94l-4.1,2.8v2.14h-2.57v3.72h2.57v5.34c0,5,1.55,6.57,6.37,6.57h.79v-3.87h-.31c-2.49,0-2.75-.25-2.75-2.72v-5.32Z"/><path d="M131.48,112.17a2.48,2.48,0,1,0,0-5,2.35,2.35,0,0,0-2.48,2.49A2.29,2.29,0,0,0,131.48,112.17Z"/><rect x="129.43" y="113.07" width="4.1" height="15.63"/><path d="M144.45,112.76a5.88,5.88,0,0,0-4.19,1.66v-1.35h-4V128.7h4.08v-8.54c0-2.3,1.26-3.78,3.21-3.78,2.55,0,3.08,1.89,3.08,3.47v8.85h4.13v-9.21C150.71,115.22,148.43,112.76,144.45,112.76Z"/><path d="M165.17,113.07v1.45a6.54,6.54,0,0,0-4.52-1.76A8.14,8.14,0,0,0,160.6,129a6.49,6.49,0,0,0,4.6-1.81v.94a3.92,3.92,0,0,1-4,4c-2.11,0-3.26-.74-4.4-2.84l-.15-.28-3.61,2.19.14.25a8.5,8.5,0,0,0,8,4.48c4.82,0,8.06-3.2,8.06-8V113.07Zm-4,12.15a4.35,4.35,0,0,1,0-8.69,4.35,4.35,0,0,1,0,8.69Z"/></g></g></svg>